# xmcd
#
# Track frame offsets:
# 183
# 16225
# 34653
# 48845
# 64895
# 81535
# 98098
# 114063
# 131680
# 156410
# 173210
# 204185
# 220548
# 246558
# 272155
#
# Disc length: 4073 seconds
#
#
# Revision: 0
# Processed by: cddbd v1.5.2PL0 Copyright (c) Steve Scherf et al.
# Submitted via: FreeRIP 2.951 
#
DISCID=cb0fe70f
DTITLE=Espérer JC Gianadda - Espérer
DYEAR=1995
DGENRE=Cult
TTITLE0=L'espérance est sur la route
TTITLE1=Comment vas-tu Monsieur le monde
TTITLE2=Petit prince lumière
TTITLE3=Si tu regardes bien le ciel
TTITLE4=Vivre est une belle aventure
TTITLE5=Si
TTITLE6=De passage
TTITLE7=Adieu l'ami, adieu mon frère
TTITLE8=Reste avec nous, la nuit est longue
TTITLE9=S'il est vrai qu'un printemps
TTITLE10=Te retrouver sur cette route
TTITLE11=Venez goûter mon eau de vivre
TTITLE12=Psaume :"Nunc Coepi"
TTITLE13=En tout homme Jésus se montre
TTITLE14=Avé Maria, entends nos prières
EXTD=
EXTT0=
EXTT1=
EXTT2=
EXTT3=
EXTT4=
EXTT5=
EXTT6=
EXTT7=
EXTT8=
EXTT9=
EXTT10=
EXTT11=
EXTT12=
EXTT13=
EXTT14=
PLAYORDER=
